<svg xmlns="http://www.w3.org/2000/svg" height="40" width="40"><path d="M10 36.667V29.5q-2.375-2.167-3.688-5.062Q5 21.542 5 18.333q0-6.25 4.375-10.625T20 3.333q5.208 0 9.229 3.063 4.021 3.062 5.229 7.979l2.25 8.917q.167.625-.25 1.166-.416.542-1.083.542h-3.708v5.542q0 1.166-.813 1.979-.812.812-1.979.812H25v3.334h-2.792v-6.125h6.667v-8.334h4.667l-1.75-7.125q-1-3.958-4.292-6.458t-7.5-2.5q-5.083 0-8.646 3.521-3.562 3.521-3.562 8.604 0 2.625 1.062 4.979 1.063 2.354 3.021 4.188l.917.833v8.417Zm10.667-15.292Zm-2.084 3.25h2.792l.167-1.917q.416-.125.812-.354.396-.229.688-.521l1.791.667 1.334-2.292-1.375-1.083q.166-.5.166-1.021 0-.521-.166-1.021L26.167 16l-1.334-2.292-1.791.667q-.334-.25-.709-.479-.375-.229-.791-.354l-.167-1.917h-2.792l-.166 1.917q-.417.125-.813.354-.396.229-.687.479l-1.792-.667L13.792 16l1.375 1.083q-.167.5-.167 1.021 0 .521.167 1.021l-1.375 1.083 1.333 2.292 1.792-.667q.291.292.666.521.375.229.834.354Zm1.375-3.75q-1.125 0-1.937-.813-.813-.812-.813-1.937 0-1.167.813-1.979.812-.813 1.937-.813 1.167 0 1.98.813.812.812.812 1.979 0 1.125-.812 1.937-.813.813-1.98.813Z"/></svg>