<svg xmlns="http://www.w3.org/2000/svg" height="40" width="40"><path d="M21.75 16.667v-2.792h9.167v2.792Zm0-5.542V8.333h13.333v2.792Zm-9.083 23.833q-3.25 0-5.542-2.291-2.292-2.292-2.292-5.542 0-2 .959-3.75.958-1.75 2.666-2.875V9.208q0-1.75 1.23-2.979Q10.917 5 12.667 5t2.979 1.229q1.229 1.229 1.229 2.979V20.5q1.708 1.125 2.667 2.875.958 1.75.958 3.75 0 3.25-2.292 5.542-2.291 2.291-5.541 2.291Zm-5.042-7.833h10.083q0-1.375-.687-2.667-.688-1.291-1.896-1.916l-1-.584V9.208q0-.625-.417-1.02-.416-.396-1.041-.396t-1.042.396q-.417.395-.417 1.02v12.75l-1 .584q-1.291.708-1.937 1.958-.646 1.25-.646 2.625Z"/></svg>